<svg xmlns="http://www.w3.org/2000/svg" viewBox="0 0 640 480" role="img" aria-labelledby="title desc">
  <title id="title">Default add-on image</title>
  <desc id="desc">Illustration of assorted milk tea toppings.</desc>
  <defs>
    <linearGradient id="bg" x1="0" y1="0" x2="1" y2="1">
      <stop offset="0" stop-color="#f4f8ef"/>
      <stop offset="1" stop-color="#d5e6c5"/>
    </linearGradient>
  </defs>
  <rect width="640" height="480" fill="url(#bg)"/>
  <circle cx="104" cy="86" r="58" fill="#c9e6ad" opacity=".65"/>
  <circle cx="535" cy="390" r="82" fill="#f4d2a0" opacity=".65"/>
  <ellipse cx="320" cy="334" rx="190" ry="64" fill="#7b4a2b"/>
  <ellipse cx="320" cy="318" rx="170" ry="52" fill="#f5d4a1"/>
  <circle cx="214" cy="310" r="24" fill="#332014"/>
  <circle cx="274" cy="342" r="24" fill="#332014"/>
  <circle cx="334" cy="304" r="24" fill="#332014"/>
  <circle cx="398" cy="342" r="24" fill="#332014"/>
  <circle cx="452" cy="306" r="24" fill="#332014"/>
  <path d="M224 210c40-36 86-54 139-54 35 0 69 8 101 25" fill="none" stroke="#6b4423" stroke-width="18" stroke-linecap="round"/>
  <path d="M214 238c44-34 92-51 145-51 31 0 62 6 93 18" fill="none" stroke="#b77743" stroke-width="18" stroke-linecap="round"/>
  <text x="320" y="116" text-anchor="middle" font-family="Arial, sans-serif" font-size="34" font-weight="700" fill="#4d341f">Add-ons</text>
</svg>
